<svg xmlns="http://www.w3.org/2000/svg" width="30" height="31" viewBox="0 0 30 31" fill="none">
  <path d="M14.9121 3.3924C8.10683 3.3924 2.57031 8.92891 2.57031 15.7342V20.8474C2.57031 22.1112 3.67737 23.1392 5.03867 23.1392H6.27284C6.60017 23.1392 6.91409 23.0092 7.14554 22.7778C7.37699 22.5463 7.50702 22.2324 7.50702 21.9051V15.5577C7.50702 15.2304 7.37699 14.9164 7.14554 14.685C6.91409 14.4535 6.60017 14.3235 6.27284 14.3235H5.15221C5.83841 9.54724 9.94823 5.86075 14.9121 5.86075C19.8759 5.86075 23.9858 9.54724 24.672 14.3235H23.5513C23.224 14.3235 22.9101 14.4535 22.6786 14.685C22.4472 14.9164 22.3172 15.2304 22.3172 15.5577V23.1392C22.3172 24.5005 21.2101 25.6076 19.8488 25.6076H17.3804V24.3734H12.4437V28.0759H19.8488C22.5714 28.0759 24.7855 25.8618 24.7855 23.1392C26.1468 23.1392 27.2539 22.1112 27.2539 20.8474V15.7342C27.2539 8.92891 21.7173 3.3924 14.9121 3.3924Z" fill="white"/>
</svg>