<svg width="16" height="16" viewBox="0 0 16 16" fill="none" xmlns="http://www.w3.org/2000/svg">
<g id="info-square" clip-path="url(#clip0_620_18000)">
<g id="Vector">
<path d="M13.2237 1C13.4742 1 13.7144 1.10536 13.8916 1.29289C14.0687 1.48043 14.1682 1.73478 14.1682 2V14C14.1682 14.2652 14.0687 14.5196 13.8916 14.7071C13.7144 14.8946 13.4742 15 13.2237 15H1.88909C1.63858 15 1.39834 14.8946 1.2212 14.7071C1.04406 14.5196 0.944547 14.2652 0.944547 14V2C0.944547 1.73478 1.04406 1.48043 1.2212 1.29289C1.39834 1.10536 1.63858 1 1.88909 1H13.2237ZM1.88909 0C1.38808 0 0.907577 0.210714 0.553303 0.585786C0.199029 0.960859 0 1.46957 0 2V14C0 14.5304 0.199029 15.0391 0.553303 15.4142C0.907577 15.7893 1.38808 16 1.88909 16H13.2237C13.7247 16 14.2052 15.7893 14.5595 15.4142C14.9137 15.0391 15.1128 14.5304 15.1128 14V2C15.1128 1.46957 14.9137 0.960859 14.5595 0.585786C14.2052 0.210714 13.7247 0 13.2237 0H1.88909Z" fill="white"/>
<path d="M8.43481 6.588L6.27179 6.875L6.19434 7.255L6.61939 7.338C6.89708 7.408 6.95187 7.514 6.89142 7.807L6.19434 11.275C6.0111 12.172 6.29352 12.594 6.95753 12.594C7.47231 12.594 8.07021 12.342 8.3413 11.996L8.42442 11.58C8.23551 11.756 7.9597 11.826 7.77646 11.826C7.51671 11.826 7.42225 11.633 7.48931 11.293L8.43481 6.588ZM8.50092 4.5C8.50092 4.76522 8.40141 5.01957 8.22427 5.20711C8.04714 5.39464 7.80689 5.5 7.55638 5.5C7.30587 5.5 7.06562 5.39464 6.88848 5.20711C6.71134 5.01957 6.61183 4.76522 6.61183 4.5C6.61183 4.23478 6.71134 3.98043 6.88848 3.79289C7.06562 3.60536 7.30587 3.5 7.55638 3.5C7.80689 3.5 8.04714 3.60536 8.22427 3.79289C8.40141 3.98043 8.50092 4.23478 8.50092 4.5Z" fill="white"/>
</g>
</g>
<defs>
<clipPath id="clip0_620_18000">
<rect width="15.1128" height="16" fill="white"/>
</clipPath>
</defs>
</svg>
