<svg xmlns="http://www.w3.org/2000/svg" width="19" height="19" viewBox="0 0 19 19" fill="none">
  <path d="M18.2517 6.03077C18.2107 5.11275 18.0604 4.48163 17.8451 3.93475C17.6229 3.35425 17.2812 2.83453 16.8334 2.40248C16.3959 1.96372 15.8662 1.62277 15.2852 1.40682C14.7282 1.19416 14.0925 1.0457 13.1629 1.00523C12.2264 0.961324 11.9291 0.951172 9.55383 0.951172C7.17858 0.951172 6.88127 0.961324 5.94823 1.0018C5.01866 1.04227 4.37959 1.19086 3.82596 1.40339C3.23802 1.62277 2.71175 1.96029 2.27427 2.40248C1.82998 2.83453 1.48488 3.35768 1.26607 3.93145C1.05073 4.48163 0.900408 5.10932 0.859423 6.02734C0.814967 6.95221 0.804688 7.24582 0.804688 9.59155C0.804688 11.9373 0.814967 12.2309 0.855952 13.1523C0.896937 14.0703 1.04739 14.7015 1.26273 15.2483C1.48488 15.8288 1.82998 16.3486 2.27427 16.7806C2.71175 17.2194 3.24149 17.5603 3.82249 17.7763C4.37959 17.9889 5.01519 18.1374 5.94489 18.1779C6.8778 18.2185 7.17524 18.2285 9.5505 18.2285C11.9258 18.2285 12.2231 18.2185 13.1561 18.1779C14.0857 18.1374 14.7247 17.9889 15.2784 17.7763C16.4541 17.3274 17.3837 16.4093 17.8383 15.2483C18.0535 14.6982 18.2039 14.0703 18.2449 13.1523C18.2859 12.2309 18.2962 11.9373 18.2962 9.59155C18.2962 7.24582 18.2927 6.95221 18.2517 6.03077ZM16.6763 13.0848C16.6386 13.9286 16.4951 14.3843 16.3755 14.688C16.0815 15.4407 15.4766 16.0381 14.7145 16.3284C14.4069 16.4465 13.9422 16.5882 13.0911 16.6253C12.1683 16.6659 11.8916 16.6759 9.55731 16.6759C7.22303 16.6759 6.94281 16.6659 6.02339 16.6253C5.16898 16.5882 4.7076 16.4465 4.40001 16.3284C4.02074 16.19 3.6755 15.9706 3.39528 15.6837C3.10478 15.4035 2.88264 15.066 2.74246 14.6914C2.62284 14.3877 2.47933 13.9286 2.44182 13.0882C2.4007 12.177 2.39055 11.9035 2.39055 9.59827C2.39055 7.29302 2.4007 7.01628 2.44182 6.10842C2.47933 5.26463 2.62284 4.80899 2.74246 4.50523C2.88264 4.13053 3.10478 3.78972 3.39875 3.51285C3.68231 3.22597 4.02407 3.00658 4.40348 2.86828C4.71107 2.75015 5.17592 2.60842 6.02686 2.57124C6.94962 2.53077 7.22651 2.52061 9.56064 2.52061C11.8984 2.52061 12.1751 2.53077 13.0946 2.57124C13.949 2.60842 14.4103 2.75015 14.7179 2.86828C15.0972 3.00658 15.4424 3.22597 15.7227 3.51285C16.0132 3.79302 16.2353 4.13053 16.3755 4.50523C16.4951 4.80899 16.6386 5.26793 16.6763 6.10842C16.7173 7.01971 16.7275 7.29302 16.7275 9.59827C16.7275 11.9035 16.7173 12.1735 16.6763 13.0848Z" fill="white"/>
  <path d="M9.55376 5.15356C7.07264 5.15356 5.05957 7.14147 5.05957 9.59188C5.05957 12.0423 7.07264 14.0302 9.55376 14.0302C12.035 14.0302 14.048 12.0423 14.048 9.59188C14.048 7.14147 12.035 5.15356 9.55376 5.15356ZM9.55376 12.4709C7.94414 12.4709 6.63849 11.1816 6.63849 9.59188C6.63849 8.00214 7.94414 6.71286 9.55376 6.71286C11.1635 6.71286 12.469 8.00214 12.469 9.59188C12.469 11.1816 11.1635 12.4709 9.55376 12.4709Z" fill="white"/>
  <path d="M15.2753 4.97755C15.2753 5.54974 14.8055 6.01369 14.2259 6.01369C13.6465 6.01369 13.1768 5.54974 13.1768 4.97755C13.1768 4.40523 13.6465 3.94141 14.2259 3.94141C14.8055 3.94141 15.2753 4.40523 15.2753 4.97755Z" fill="white"/>
</svg>