<svg xmlns="http://www.w3.org/2000/svg" width="26" height="27" viewBox="0 0 26 27" fill="none">
  <g clip-path="url(#clip0_1005_557)">
    <path d="M25.2047 0.994725C25.1293 0.80689 24.9844 0.655364 24.8001 0.571668C24.6158 0.487973 24.4063 0.478552 24.2152 0.545366C24.0242 0.612181 23.8662 0.750085 23.7742 0.930392C23.6823 1.1107 23.6633 1.31952 23.7214 1.51342C24.9291 4.98443 22.5319 7.57662 20.7041 8.96502L19.9657 7.90683C19.7174 7.55192 19.1623 7.25682 18.7307 7.25162L14.5863 7.26982C14.08 7.28511 13.5873 7.43693 13.1602 7.70922L0.948006 16.2723C0.663949 16.4722 0.470671 16.7765 0.410489 17.1186C0.350307 17.4607 0.428126 17.8127 0.626906 18.0975L6.17661 26.0379C6.59261 26.6294 7.25691 26.5579 7.84971 26.1445L20.0619 17.5801C20.4129 17.3318 20.8185 16.7962 20.9615 16.3867L22.2589 12.2982C22.4019 11.89 22.3148 11.2673 22.0665 10.9124L21.6167 10.2676C24.0711 8.38652 26.6191 5.06242 25.2047 0.994725ZM19.5224 13.1601C19.2974 13.3176 19.0436 13.4292 18.7755 13.4886C18.5074 13.5479 18.2302 13.5539 17.9597 13.5061C17.6893 13.4583 17.431 13.3576 17.1994 13.21C16.9679 13.0623 16.7678 12.8704 16.6104 12.6453C16.2918 12.1899 16.1669 11.6266 16.2632 11.0792C16.3595 10.5318 16.669 10.0449 17.1239 9.72552C17.4805 9.47569 17.9063 9.34351 18.3416 9.34747C18.777 9.35143 19.2003 9.49134 19.5523 9.74762C19.1987 9.96082 18.9556 10.0856 18.9101 10.1051C18.749 10.182 18.6187 10.3113 18.5406 10.4718C18.4626 10.6324 18.4414 10.8147 18.4805 10.9889C18.5196 11.1631 18.6168 11.3188 18.756 11.4306C18.8952 11.5423 19.0683 11.6035 19.2468 11.604C19.3586 11.604 19.473 11.578 19.5809 11.5273C19.8331 11.4077 20.1035 11.266 20.3856 11.0983C20.4505 11.4884 20.4039 11.8889 20.2512 12.2536C20.0985 12.6184 19.8459 12.9326 19.5224 13.1601Z" fill="white"/>
  </g>
  <defs>
    <clipPath id="clip0_1005_557">
      <rect width="26" height="26" fill="white" transform="translate(0 0.468262)"/>
    </clipPath>
  </defs>
</svg>