<svg xmlns="http://www.w3.org/2000/svg" width="23" height="23" viewBox="0 0 23 23" fill="none">
  <path d="M0 5.75C0 4.9875 0.302901 4.25623 0.842068 3.71707C1.38124 3.1779 2.1125 2.875 2.875 2.875H20.125C20.8875 2.875 21.6188 3.1779 22.1579 3.71707C22.6971 4.25623 23 4.9875 23 5.75V12.9375H0V5.75ZM16.5312 7.1875C16.3406 7.1875 16.1578 7.26323 16.023 7.39802C15.8882 7.53281 15.8125 7.71563 15.8125 7.90625V9.34375C15.8125 9.53437 15.8882 9.71719 16.023 9.85198C16.1578 9.98677 16.3406 10.0625 16.5312 10.0625H19.4062C19.5969 10.0625 19.7797 9.98677 19.9145 9.85198C20.0493 9.71719 20.125 9.53437 20.125 9.34375V7.90625C20.125 7.71563 20.0493 7.53281 19.9145 7.39802C19.7797 7.26323 19.5969 7.1875 19.4062 7.1875H16.5312ZM0 15.8125V17.25C0 18.0125 0.302901 18.7438 0.842068 19.2829C1.38124 19.8221 2.1125 20.125 2.875 20.125H20.125C20.8875 20.125 21.6188 19.8221 22.1579 19.2829C22.6971 18.7438 23 18.0125 23 17.25V15.8125H0Z" fill="white"/>
</svg>