<svg width="30" height="31" viewBox="0 0 30 31" fill="none" xmlns="http://www.w3.org/2000/svg">
<g id="person">
<path id="Vector" d="M15 15.25C16.4918 15.25 17.9226 14.6574 18.9775 13.6025C20.0324 12.5476 20.625 11.1168 20.625 9.625C20.625 8.13316 20.0324 6.70242 18.9775 5.64752C17.9226 4.59263 16.4918 4 15 4C13.5082 4 12.0774 4.59263 11.0225 5.64752C9.96763 6.70242 9.375 8.13316 9.375 9.625C9.375 11.1168 9.96763 12.5476 11.0225 13.6025C12.0774 14.6574 13.5082 15.25 15 15.25ZM18.75 9.625C18.75 10.6196 18.3549 11.5734 17.6516 12.2767C16.9484 12.9799 15.9946 13.375 15 13.375C14.0054 13.375 13.0516 12.9799 12.3483 12.2767C11.6451 11.5734 11.25 10.6196 11.25 9.625C11.25 8.63044 11.6451 7.67661 12.3483 6.97335C13.0516 6.27009 14.0054 5.875 15 5.875C15.9946 5.875 16.9484 6.27009 17.6516 6.97335C18.3549 7.67661 18.75 8.63044 18.75 9.625ZM26.25 24.625C26.25 26.5 24.375 26.5 24.375 26.5H5.625C5.625 26.5 3.75 26.5 3.75 24.625C3.75 22.75 5.625 17.125 15 17.125C24.375 17.125 26.25 22.75 26.25 24.625ZM24.375 24.6175C24.3731 24.1562 24.0863 22.7687 22.815 21.4975C21.5925 20.275 19.2919 19 15 19C10.7063 19 8.4075 20.275 7.185 21.4975C5.91375 22.7687 5.62875 24.1562 5.625 24.6175H24.375Z" fill="white"/>
</g>
</svg>
