<svg xmlns="http://www.w3.org/2000/svg" width="30" height="31" viewBox="0 0 30 31" fill="none">
  <g clip-path="url(#clip0_1005_1231)">
    <path d="M17.82 27.6483L15 30.4683L12.18 27.6483C6.6375 26.3683 2.5 21.3983 2.5 15.4683C2.5 8.56826 8.1 2.96826 15 2.96826C21.9 2.96826 27.5 8.56826 27.5 15.4683C27.5 21.3983 23.3625 26.3683 17.82 27.6483ZM7.52875 19.7383C9.36375 22.4758 12.1187 24.2183 15.2 24.2183C18.28 24.2183 21.0362 22.477 22.87 19.7383C20.7897 17.794 18.0474 16.7143 15.2 16.7183C12.3521 16.714 9.60939 17.7937 7.52875 19.7383ZM15 14.2183C15.9946 14.2183 16.9484 13.8232 17.6517 13.1199C18.3549 12.4167 18.75 11.4628 18.75 10.4683C18.75 9.4737 18.3549 8.51987 17.6517 7.81661C16.9484 7.11335 15.9946 6.71826 15 6.71826C14.0054 6.71826 13.0516 7.11335 12.3483 7.81661C11.6451 8.51987 11.25 9.4737 11.25 10.4683C11.25 11.4628 11.6451 12.4167 12.3483 13.1199C13.0516 13.8232 14.0054 14.2183 15 14.2183Z" fill="white"/>
  </g>
  <defs>
    <clipPath id="clip0_1005_1231">
      <rect width="30" height="30" fill="white" transform="translate(0 0.468262)"/>
    </clipPath>
  </defs>
</svg>