<svg xmlns="http://www.w3.org/2000/svg" width="28" height="32" viewBox="0 0 28 32" fill="none">
  <path d="M27.6996 13.4576C27.3696 12.3439 26.6696 11.4439 25.7396 10.9151C25.3196 10.6789 24.8096 10.8701 24.5896 11.3426C24.3796 11.8151 24.5496 12.3889 24.9696 12.6364C25.4996 12.9289 25.8896 13.4351 26.0696 14.0651C26.2596 14.6951 26.2096 15.3589 25.9496 15.9551C25.7596 16.3826 25.4396 16.6976 25.0396 16.8439C23.8496 11.9276 19.2496 9.46387 13.7396 9.46387C11.8996 9.46387 10.1696 9.74512 8.62961 10.2964C7.09961 9.50887 5.32961 9.35137 3.65961 9.94762C3.24961 10.0939 3.05961 10.6339 3.25961 11.0614L4.28961 13.1651C3.13961 14.5039 2.38961 16.2139 2.17961 18.2839L1.23961 18.4751C0.579609 18.5989 0.0996094 19.2401 0.0996094 19.9939V22.6151C0.0996094 23.0539 0.259609 23.4701 0.549609 23.7626L2.05961 25.2814C2.98961 26.2714 4.19961 27.0814 5.55961 27.7226V30.9851C5.55961 31.4126 5.86961 31.7501 6.23961 31.7501H9.79961C10.1096 31.7501 10.3896 31.5139 10.4596 31.1651L10.8896 29.2414C11.8496 29.3764 12.8096 29.4439 13.7496 29.4439C14.7296 29.4439 15.6896 29.3539 16.5996 29.1964L17.0396 31.1651C17.1196 31.5026 17.3896 31.7501 17.6996 31.7501H21.2596C21.6396 31.7501 21.9396 31.4014 21.9396 30.9851V26.9576C24.0496 25.2926 25.3496 22.7951 25.3496 19.4539C25.3496 19.2064 25.3296 18.9814 25.3096 18.7451C25.3996 18.7226 25.4796 18.7001 25.5696 18.6776C26.4096 18.3626 27.0796 17.7101 27.4796 16.8214C27.9596 15.7639 28.0296 14.5714 27.6996 13.4576ZM5.89961 18.6889C5.32961 18.6889 4.87961 18.1714 4.87961 17.5414C4.87961 16.9114 5.33961 16.3939 5.89961 16.3939C6.45961 16.3939 6.91961 16.9114 6.91961 17.5414C6.91961 18.1714 6.45961 18.6889 5.89961 18.6889ZM18.3396 13.4801C18.2196 13.8851 17.8896 14.1439 17.5296 14.1439C17.4396 14.1439 17.3496 14.1326 17.2696 14.0989C16.0196 13.6376 14.5196 13.4689 12.9596 13.6039C12.2396 13.6601 11.5396 13.7839 10.8796 13.9639C10.4196 14.0876 9.95961 13.7726 9.84961 13.2551C9.73961 12.7376 10.0196 12.2201 10.4796 12.0964C11.2296 11.8939 12.0196 11.7589 12.8296 11.6914C14.6396 11.5339 16.3096 11.7364 17.7996 12.2764C18.2396 12.4339 18.4796 12.9851 18.3396 13.4801Z" fill="white"/>
  <path d="M14.0895 7.1575C15.785 7.1575 17.1595 5.6112 17.1595 3.70375C17.1595 1.7963 15.785 0.25 14.0895 0.25C12.394 0.25 11.0195 1.7963 11.0195 3.70375C11.0195 5.6112 12.394 7.1575 14.0895 7.1575Z" fill="white"/>
</svg>