<svg xmlns="http://www.w3.org/2000/svg" width="25" height="24" viewBox="0 0 25 24" fill="none">
  <g clip-path="url(#clip0_620_17985)">
    <path d="M17.6607 15.5164C19.1101 13.5344 19.7593 11.0771 19.4783 8.63612C19.1974 6.19511 18.0071 3.9504 16.1455 2.35109C14.2839 0.751776 11.8883 -0.0841998 9.43808 0.01041C6.98782 0.10502 4.66357 1.12324 2.93031 2.86136C1.19706 4.59947 0.182622 6.92931 0.0899631 9.38475C-0.0026962 11.8402 0.833252 14.2401 2.43057 16.1045C4.02788 17.9688 6.26876 19.16 8.70488 19.4398C11.141 19.7195 13.5927 19.0673 15.5695 17.6134H15.568C15.6129 17.6734 15.6608 17.7304 15.7147 17.7859L21.4777 23.5609C21.7584 23.8424 22.1391 24.0006 22.5362 24.0007C22.9333 24.0008 23.3141 23.8429 23.595 23.5616C23.8759 23.2804 24.0338 22.8988 24.0339 22.5009C24.034 22.103 23.8764 21.7214 23.5958 21.4399L17.8328 15.6649C17.7793 15.6106 17.7217 15.562 17.6607 15.5164ZM18.0469 9.75039C18.0469 10.8338 17.8339 11.9066 17.4202 12.9075C17.0064 13.9085 16.4 14.8179 15.6355 15.584C14.871 16.3501 13.9635 16.9578 12.9646 17.3724C11.9657 17.787 10.8952 18.0004 9.81404 18.0004C8.73289 18.0004 7.66233 17.787 6.66348 17.3724C5.66463 16.9578 4.75705 16.3501 3.99256 15.584C3.22807 14.8179 2.62165 13.9085 2.20791 12.9075C1.79417 11.9066 1.58123 10.8338 1.58123 9.75039C1.58123 7.56236 2.44861 5.46394 3.99256 3.91676C5.53651 2.36959 7.63056 1.5004 9.81404 1.5004C11.9975 1.5004 14.0916 2.36959 15.6355 3.91676C17.1795 5.46394 18.0469 7.56236 18.0469 9.75039Z" fill="#0F206C"/>
  </g>
  <defs>
    <clipPath id="clip0_620_17985">
      <rect width="23.95" height="24" fill="white" transform="translate(0.0849609)"/>
    </clipPath>
  </defs>
</svg>