<svg width="16" height="16" viewBox="0 0 16 16" fill="none" xmlns="http://www.w3.org/2000/svg">
<g id="tag">
<g id="Vector">
<path d="M5.66707 4.5C5.66707 4.89782 5.5178 5.27936 5.25209 5.56066C4.98639 5.84196 4.62602 6 4.25025 6C3.87449 6 3.51411 5.84196 3.24841 5.56066C2.9827 5.27936 2.83343 4.89782 2.83343 4.5C2.83343 4.10218 2.9827 3.72064 3.24841 3.43934C3.51411 3.15804 3.87449 3 4.25025 3C4.62602 3 4.98639 3.15804 5.25209 3.43934C5.5178 3.72064 5.66707 4.10218 5.66707 4.5ZM4.72252 4.5C4.72252 4.36739 4.67277 4.24021 4.5842 4.14645C4.49563 4.05268 4.37551 4 4.25025 4C4.125 4 4.00487 4.05268 3.9163 4.14645C3.82773 4.24021 3.77798 4.36739 3.77798 4.5C3.77798 4.63261 3.82773 4.75979 3.9163 4.85355C4.00487 4.94732 4.125 5 4.25025 5C4.37551 5 4.49563 4.94732 4.5842 4.85355C4.67277 4.75979 4.72252 4.63261 4.72252 4.5Z" fill="white"/>
<path d="M1.88888 1H6.22058C6.47107 1.00006 6.71128 1.10545 6.88837 1.293L13.5002 8.293C13.6773 8.48053 13.7768 8.73484 13.7768 9C13.7768 9.26516 13.6773 9.51947 13.5002 9.707L9.16851 14.293C8.99138 14.4805 8.75117 14.5858 8.50071 14.5858C8.25025 14.5858 8.01005 14.4805 7.83292 14.293L1.22109 7.293C1.04394 7.10551 0.944389 6.85119 0.944336 6.586V2C0.944336 1.73478 1.04385 1.48043 1.22099 1.29289C1.39812 1.10536 1.63837 1 1.88888 1ZM1.88888 6.586L8.50071 13.586L12.8324 9L6.22058 2H1.88888V6.586Z" fill="white"/>
</g>
</g>
</svg>
