<svg xmlns="http://www.w3.org/2000/svg" width="19" height="15" viewBox="0 0 19 15" fill="none">
  <path d="M18.0561 2.25924C17.4087 2.5397 16.7188 2.7256 15.9996 2.81587C16.7395 2.37959 17.3042 1.69401 17.5697 0.867665C16.8799 1.27385 16.1182 1.56077 15.3065 1.72088C14.6514 1.03207 13.7179 0.605469 12.6994 0.605469C10.7234 0.605469 9.13259 2.18939 9.13259 4.13115C9.13259 4.41054 9.15653 4.67918 9.21529 4.93493C6.24803 4.79201 3.62244 3.38754 1.85863 1.24806C1.5507 1.77568 1.37007 2.37959 1.37007 3.02971C1.37007 4.25042 2.00661 5.33252 2.95544 5.959C2.38201 5.94825 1.81946 5.78384 1.34287 5.52487C1.34287 5.53561 1.34287 5.54958 1.34287 5.56355C1.34287 7.27642 2.58004 8.69916 4.2024 9.02691C3.91188 9.10535 3.59524 9.14296 3.26663 9.14296C3.03813 9.14296 2.80745 9.13006 2.59092 9.08278C3.05337 10.4787 4.36562 11.5049 5.92596 11.5382C4.71163 12.4763 3.16979 13.0415 1.50064 13.0415C1.20795 13.0415 0.927215 13.0286 0.646484 12.9932C2.2275 14 4.10121 14.5749 6.12181 14.5749C12.6896 14.5749 16.2803 9.20206 16.2803 4.54486C16.2803 4.38904 16.2749 4.2386 16.2673 4.08924C16.9756 3.59278 17.5708 2.97276 18.0561 2.25924Z" fill="white"/>
</svg>