<svg xmlns="http://www.w3.org/2000/svg" width="64" height="68" viewBox="0 0 64 68" fill="none">
  <g clip-path="url(#clip0_952_4522)">
    <g filter="url(#filter0_d_952_4522)">
      <path d="M2.86369 31.9428C2.86226 37.11 4.2124 42.1554 6.77966 46.6024L2.61816 61.7967L18.1677 57.7196C22.4684 60.061 27.2871 61.2878 32.1839 61.2881H32.1968C48.362 61.2881 61.5209 48.134 61.5278 31.9659C61.5309 24.1313 58.4826 16.7642 52.9442 11.2216C47.4068 5.67943 40.0423 2.62565 32.1956 2.62207C16.0285 2.62207 2.8706 15.7754 2.86393 31.9428" fill="url(#paint0_linear_952_4522)"/>
    </g>
    <path d="M1.81561 31.9335C1.81394 37.2866 3.21247 42.5124 5.87127 47.1187L1.56055 62.8577L17.6676 58.6345C22.1056 61.0542 27.1024 62.3299 32.1868 62.3319H32.1999C48.9451 62.3319 62.5766 48.7046 62.5838 31.9578C62.5867 23.8417 59.4287 16.2097 53.6925 10.4685C47.9556 4.72805 40.3277 1.56437 32.1999 1.56104C15.4519 1.56104 1.82228 15.1864 1.81561 31.9335ZM11.4077 46.3254L10.8063 45.3707C8.27811 41.3508 6.9437 36.7054 6.94561 31.9354C6.95109 18.0156 18.2795 6.6908 32.2095 6.6908C38.9554 6.69366 45.2952 9.32338 50.0635 14.0946C54.8317 18.8664 57.4555 25.2095 57.4538 31.9559C57.4476 45.8756 46.119 57.2018 32.1999 57.2018H32.1899C27.6578 57.1995 23.2128 55.9823 19.3364 53.6823L18.4139 53.1352L8.85569 55.6412L11.4077 46.3252V46.3254Z" fill="url(#paint1_linear_952_4522)"/>
    <path d="M24.6065 19.2357C24.0378 17.9716 23.4392 17.9461 22.8984 17.9239C22.4555 17.9048 21.9492 17.9063 21.4433 17.9063C20.937 17.9063 20.1144 18.0967 19.4191 18.8559C18.723 19.6159 16.7617 21.4523 16.7617 25.1873C16.7617 28.9226 19.4823 32.5323 19.8615 33.0393C20.2412 33.5454 25.1136 41.4555 32.8301 44.4986C39.2433 47.0275 40.5484 46.5245 41.9402 46.3977C43.3323 46.2714 46.4321 44.5618 47.0645 42.789C47.6974 41.0164 47.6974 39.4971 47.5077 39.1796C47.3179 38.8632 46.8116 38.6733 46.0524 38.2938C45.2929 37.914 41.5605 36.0774 40.8647 35.824C40.1687 35.5708 39.6626 35.4445 39.1563 36.2047C38.65 36.9636 37.1962 38.6733 36.753 39.1796C36.3104 39.687 35.8672 39.7502 35.1083 39.3705C34.3486 38.9896 31.9036 38.1889 29.0028 35.6028C26.7459 33.5904 25.2223 31.1054 24.7794 30.3452C24.3365 29.5863 24.7319 29.1748 25.1126 28.7965C25.4537 28.4564 25.8721 27.91 26.252 27.4669C26.6306 27.0235 26.7569 26.7072 27.01 26.2009C27.2634 25.6941 27.1366 25.2508 26.9471 24.871C26.7569 24.4913 25.2816 20.7367 24.6065 19.2357Z" fill="white"/>
  </g>
  <defs>
    <filter id="filter0_d_952_4522" x="-1.38184" y="2.62207" width="66.9097" height="67.1746" filterUnits="userSpaceOnUse" color-interpolation-filters="sRGB">
      <feFlood flood-opacity="0" result="BackgroundImageFix"/>
      <feColorMatrix in="SourceAlpha" type="matrix" values="0 0 0 0 0 0 0 0 0 0 0 0 0 0 0 0 0 0 127 0" result="hardAlpha"/>
      <feOffset dy="4"/>
      <feGaussianBlur stdDeviation="2"/>
      <feComposite in2="hardAlpha" operator="out"/>
      <feColorMatrix type="matrix" values="0 0 0 0 0 0 0 0 0 0 0 0 0 0 0 0 0 0 0.25 0"/>
      <feBlend mode="normal" in2="BackgroundImageFix" result="effect1_dropShadow_952_4522"/>
      <feBlend mode="normal" in="SourceGraphic" in2="effect1_dropShadow_952_4522" result="shape"/>
    </filter>
    <linearGradient id="paint0_linear_952_4522" x1="2948.1" y1="5920.09" x2="2948.1" y2="2.62207" gradientUnits="userSpaceOnUse">
      <stop stop-color="#1FAF38"/>
      <stop offset="1" stop-color="#60D669"/>
    </linearGradient>
    <linearGradient id="paint1_linear_952_4522" x1="3052.72" y1="6131.23" x2="3052.72" y2="1.56104" gradientUnits="userSpaceOnUse">
      <stop stop-color="#F9F9F9"/>
      <stop offset="1" stop-color="white"/>
    </linearGradient>
    <clipPath id="clip0_952_4522">
      <rect width="64" height="67.1219" fill="white"/>
    </clipPath>
  </defs>
</svg>