<svg xmlns="http://www.w3.org/2000/svg" width="20" height="15" viewBox="0 0 20 15" fill="none">
  <path d="M9.74869 14.3421C9.7471 14.3421 9.74537 14.3421 9.74363 14.3421C9.17266 14.3383 4.12498 14.2928 2.69488 13.9108C1.69542 13.6455 0.906449 12.8672 0.637059 11.88C0.262858 10.4926 0.286678 7.82154 0.289277 7.60825C0.286823 7.39596 0.262713 4.70276 0.635904 3.30397C0.636337 3.30269 0.636626 3.30127 0.637059 3.29998C0.903417 2.32407 1.71014 1.52167 2.69242 1.25563C2.69488 1.25492 2.69748 1.25435 2.69993 1.25363C4.11387 0.886651 9.1715 0.84174 9.74363 0.837891H9.75388C10.3263 0.84174 15.3874 0.887221 16.8044 1.26974C17.8012 1.53436 18.5896 2.31167 18.8597 3.29756C19.2479 4.69734 19.212 7.39639 19.2081 7.62422C19.2108 7.84863 19.2335 10.4958 18.8615 11.8901C18.8612 11.8916 18.8607 11.8929 18.8605 11.8941C18.5909 12.8813 17.8021 13.6596 16.8015 13.9252C16.8002 13.9257 16.7987 13.9259 16.7974 13.9264C15.3836 14.2932 10.3259 14.3381 9.75388 14.3421C9.75215 14.3421 9.75042 14.3421 9.74869 14.3421ZM2.06486 3.67837C1.73628 4.91305 1.76731 7.5719 1.7676 7.5987V7.61795C1.75779 8.35533 1.79229 10.4908 2.065 11.5022C2.19724 11.9865 2.58631 12.3702 3.07976 12.5012C4.13495 12.7831 8.24611 12.8718 9.74869 12.8822C11.2552 12.8718 15.3724 12.7855 16.4198 12.5149C16.9116 12.3834 17.2994 12.0011 17.4325 11.5162C17.7055 10.4899 17.7397 8.36489 17.7298 7.6322C17.7298 7.6245 17.7298 7.61681 17.7299 7.60911C17.7435 6.86288 17.7168 4.70247 17.4338 3.68293C17.4335 3.68194 17.4332 3.68094 17.4331 3.67994C17.3003 3.19348 16.9111 2.80982 16.4176 2.67879C15.3727 2.39664 11.2549 2.30825 9.74869 2.29784C8.24322 2.30825 4.13004 2.39436 3.07947 2.66468C2.59541 2.79727 2.19753 3.19462 2.06486 3.67837ZM18.1467 11.7042H18.1471H18.1467ZM7.86454 10.5463V4.63361L13.0387 7.59L7.86454 10.5463Z" fill="white"/>
</svg>